<svg width="56" height="50" viewBox="0 0 56 50" fill="none" xmlns="http://www.w3.org/2000/svg">
<path fill-rule="evenodd" clip-rule="evenodd" d="M9.99154 2.54833e-06C10.9259 -0.00104222 11.8395 0.319188 12.6167 0.920165C13.3939 1.52114 13.9999 2.37585 14.3579 3.37613C14.7158 4.3764 14.8097 5.47727 14.6277 6.53942C14.4456 7.60157 13.9958 8.57724 13.3351 9.34297C12.6744 10.1087 11.8326 10.6301 10.9162 10.8411C9.99979 11.0521 9.04996 10.9432 8.18692 10.5284C7.32389 10.1135 6.58645 9.41116 6.06792 8.51032C5.5494 7.60948 5.2731 6.55061 5.27401 5.46771C5.27401 4.01758 5.77103 2.62685 6.65574 1.60146C7.54045 0.576062 8.74037 2.54833e-06 9.99154 2.54833e-06ZM6.65964 11.992L8.33698 17.0899H8.51474L9.33063 13.8251L8.87483 13.2704C8.54665 12.7157 8.6606 12.0818 9.27137 11.9656C9.49138 11.9469 9.71228 11.9469 9.93228 11.9656C10.1742 11.9494 10.4168 11.96 10.657 11.9973C11.2222 12.1452 11.2815 12.7791 10.9989 13.2863L10.5431 13.841L11.3954 17.0899H11.5686L13.0819 11.992C13.1495 12.0625 13.221 12.1278 13.2961 12.1874C13.7308 12.2331 14.152 12.3862 14.5313 12.6365C15.0896 12.7656 15.5811 13.1454 15.8987 13.693L19.4995 19.4566L22.0657 20.0271V8.80644H18.4193C18.1944 8.80644 17.9788 8.70292 17.8198 8.51864C17.6608 8.33437 17.5715 8.08444 17.5715 7.82384C17.5715 7.56323 17.6608 7.31331 17.8198 7.12903C17.9788 6.94476 18.1944 6.84124 18.4193 6.84124H35.3523V3.97267C35.368 3.72383 35.4644 3.49111 35.6221 3.32125C35.7797 3.15139 35.987 3.05698 36.2023 3.05698C36.4176 3.05698 36.6249 3.15139 36.7826 3.32125C36.9403 3.49111 37.0367 3.72383 37.0524 3.97267V6.86765H55.0702C55.295 6.86765 55.5106 6.97117 55.6696 7.15545C55.8286 7.33972 55.918 7.58965 55.918 7.85025C55.918 8.11085 55.8286 8.36078 55.6696 8.54506C55.5106 8.72933 55.295 8.83285 55.0702 8.83285H51.4557V33.139H55.1522C55.3771 33.139 55.5927 33.2426 55.7517 33.4268C55.9107 33.6111 56 33.861 56 34.1216C56 34.3822 55.9107 34.6322 55.7517 34.8164C55.5927 35.0007 55.3771 35.1042 55.1522 35.1042H37.1709V39.621C37.2084 39.6592 37.248 39.6944 37.2894 39.7267L42.5858 45.5378C42.6744 45.6233 42.7469 45.729 42.7988 45.8482C42.8508 45.9675 42.8811 46.0979 42.8879 46.2312C42.8946 46.3646 42.8777 46.4982 42.8382 46.6237C42.7987 46.7492 42.7374 46.864 42.6581 46.961C42.5788 47.0579 42.4832 47.135 42.3772 47.1875C42.2712 47.24 42.157 47.2667 42.0417 47.266C41.9264 47.2653 41.8125 47.2372 41.707 47.1835C41.6014 47.1297 41.5065 47.0515 41.4281 46.9536L37.1709 42.2624V46.4887C37.1552 46.7375 37.0588 46.9703 36.9011 47.1401C36.7434 47.31 36.5361 47.4044 36.3208 47.4044C36.1056 47.4044 35.8983 47.31 35.7406 47.1401C35.5829 46.9703 35.4865 46.7375 35.4708 46.4887V42.0934L31.0541 46.9589C30.9739 47.0482 30.8793 47.1181 30.7757 47.1647C30.672 47.2112 30.5614 47.2334 30.4503 47.23C30.3392 47.2265 30.2297 47.1975 30.1284 47.1446C30.027 47.0917 29.9358 47.016 29.8599 46.9219C29.7824 46.8298 29.7216 46.7207 29.6811 46.6009C29.6407 46.4812 29.6214 46.3532 29.6244 46.2247C29.6273 46.0961 29.6525 45.9695 29.6985 45.8525C29.7444 45.7354 29.8101 45.6302 29.8918 45.5431L35.1882 39.732C35.2684 39.6405 35.3648 39.5702 35.4708 39.526V35.1042H18.401C18.1762 35.1042 17.9606 35.0007 17.8016 34.8164C17.6426 34.6322 17.5533 34.3822 17.5533 34.1216C17.5533 33.861 17.6426 33.6111 17.8016 33.4268C17.9606 33.2426 18.1762 33.139 18.401 33.139H22.0474V25.2677L17.8222 24.3009C17.2572 24.1898 16.7511 23.8302 16.4092 23.2972L14.6179 20.418V20.492L14.4721 28.8283L16.2953 42.1621L16.9835 46.7317C17.3709 49.7852 13.3371 51.5972 12.3389 47.5875L9.98698 31.5172L7.59403 47.8464C7.13823 50.7995 2.97677 50.8259 2.94943 47.2388L5.58851 28.9339L5.38796 19.0498C5.16314 19.369 4.98036 19.7251 4.84555 20.1064C4.56447 20.8728 4.40987 21.6934 4.38975 22.5259L4.02511 28.2894C3.82456 31.3006 -0.0451805 31.4855 0.000399471 28.2366C0.0231895 26.7785 0.13714 25.3099 0.27388 23.8149C0.538244 20.9516 0.59294 19.1766 2.00136 16.3239C2.52867 15.2643 3.22469 14.3303 4.05246 13.5715C4.70504 12.9745 5.46531 12.5556 6.27677 12.3459C6.41176 12.2391 6.53973 12.1208 6.65964 11.992ZM23.7613 20.212L28.5289 14.4009C28.6292 14.2701 28.7512 14.1639 28.8876 14.0888C29.024 14.0137 29.172 13.9712 29.3229 13.9637C29.4738 13.9563 29.6244 13.9841 29.7658 14.0456C29.9072 14.107 30.0365 14.2007 30.146 14.3213C30.2555 14.4418 30.3429 14.5866 30.4032 14.7471C30.4634 14.9076 30.4951 15.0805 30.4965 15.2556C30.4978 15.4306 30.4688 15.6041 30.4111 15.7659C30.3535 15.9276 30.2683 16.0743 30.1607 16.1971L25.6756 21.6595C25.885 22.0524 25.9998 22.5031 26.0079 22.9648C26.0159 23.4265 25.9171 23.8822 25.7217 24.2846C25.5262 24.687 25.2412 25.0213 24.8965 25.2527C24.5517 25.4842 24.1597 25.6042 23.7613 25.6005V33.139H49.7738V8.80644H23.7613V20.212Z" fill="#555555"/>
</svg>
