<svg width="47" height="39" viewBox="0 0 47 39" fill="none" xmlns="http://www.w3.org/2000/svg">
<path fill-rule="evenodd" clip-rule="evenodd" d="M14.3603 0H46.0344C46.5507 0 46.9753 0.513828 46.9753 1.13875V7.81852H47.0021V31.8434V33.1766V33.4636H15.1138V31.8434H45.6634V8.10089H12.4747V2.28214C12.4747 1.02766 13.3238 0 14.3603 0ZM0.00547499 19.1551C-0.113097 16.4703 1.70756 15.7852 4.17462 15.9611L7.28809 20.1596L10.3365 16.0166L17.8869 15.9657C20.7403 16.3592 20.1398 19.9699 17.8869 20.1226H12.9451L11.7824 28.5753L10.9026 37.1576C10.6731 38.0649 10.2141 38.6574 9.55243 38.963L5.25707 39C4.39264 38.8426 3.87628 38.2316 3.72328 37.1576L3.05392 29.515C1.29447 29.7187 0.705432 28.2096 0.521837 26.0247L0.00547499 19.1551ZM7.10067 4.52261C9.21584 4.52261 10.9294 6.59644 10.9294 9.15632C10.9294 11.7162 9.21584 13.79 7.10067 13.79C4.9855 13.79 3.27194 11.7162 3.27194 9.15632C3.26812 6.60107 4.9855 4.52261 7.10067 4.52261ZM7.24602 18.1877L4.82103 14.9704L5.53629 14.2807C6.58813 14.8131 7.63233 14.8131 8.66506 14.2807L9.64423 14.9843L7.24602 18.1877ZM25.2613 2.07383C26.0301 2.07383 26.6536 2.82837 26.6536 3.75881C26.6536 4.68926 26.0301 5.4438 25.2613 5.4438C24.4925 5.4438 23.8691 4.68926 23.8691 3.75881C23.8691 2.82837 24.4925 2.07383 25.2613 2.07383ZM17.3399 2.07383C18.1087 2.07383 18.7322 2.82837 18.7322 3.75881C18.7322 4.68926 18.1087 5.4438 17.3399 5.4438C16.5711 5.4438 15.9477 4.68926 15.9477 3.75881C15.9477 2.82837 16.5711 2.07383 17.3399 2.07383ZM21.2987 2.07383C22.0675 2.07383 22.691 2.82837 22.691 3.75881C22.691 4.68926 22.0675 5.4438 21.2987 5.4438C20.5299 5.4438 19.9065 4.68926 19.9065 3.75881C19.9065 2.82837 20.5299 2.07383 21.2987 2.07383ZM41.7352 2.83763C41.5937 2.66635 41.5937 2.38398 41.7352 2.2127C41.8767 2.04142 42.11 2.04142 42.2515 2.2127L43.0165 3.13852L43.7815 2.2127C43.923 2.04142 44.1563 2.04142 44.2979 2.2127C44.4394 2.38398 44.4394 2.66635 44.2979 2.83763L43.5329 3.76344L44.2979 4.68926C44.4394 4.86053 44.4394 5.14291 44.2979 5.31418C44.1563 5.48546 43.923 5.48546 43.7815 5.31418L43.0165 4.38837L42.2515 5.31418C42.11 5.48546 41.8767 5.48546 41.7352 5.31418C41.5937 5.14291 41.5937 4.86053 41.7352 4.68926L42.5002 3.76344L41.7352 2.83763Z" fill="#673C6B"/>
</svg>
