<svg width="90" height="90" viewBox="0 0 90 90" fill="none" xmlns="http://www.w3.org/2000/svg">
<g clip-path="url(#clip0_27_595)">
<path fill-rule="evenodd" clip-rule="evenodd" d="M4.5996 82.2214C0.656983 81.9358 -0.293884 79.2478 0.0694555 76.1497C2.2263 57.8684 23.8643 63.1638 32.5613 55.7444C36.8982 67.8294 55.0188 68.2761 59.0851 55.7444C60.0205 56.5427 61.3192 57.2166 62.8499 57.8098C61.4507 58.6155 60.1287 59.5896 58.915 60.7395C52.7846 66.5403 51.2771 75.073 54.3849 82.2214H4.5996ZM32.4453 43.6228C34.092 46.0911 35.8159 48.6253 37.9495 50.4856C40.0059 52.2654 42.5106 53.4812 45.8039 53.4885C49.3909 53.4959 51.9961 52.2434 54.122 50.3538C56.333 48.3982 58.0724 45.7102 59.7963 43.0295L64.4192 35.8225C65.2773 33.9548 65.5943 32.7097 65.3933 31.9773C65.2696 31.5452 64.7671 31.3328 63.909 31.2961C63.7312 31.2888 63.5379 31.2888 63.3524 31.2888C63.1514 31.2962 62.9349 31.3108 62.703 31.3254C62.5716 31.3328 62.4634 31.3254 62.3474 31.3035C61.9454 31.3254 61.5125 31.2962 61.0873 31.2376L62.6644 24.6018C50.9215 26.3523 42.1395 18.0979 29.7396 22.9539L30.6364 30.7688C30.1493 30.7981 29.67 30.7761 29.2294 30.7175C22.1095 30.9373 31.0461 41.5061 32.4453 43.6228ZM65.5092 29.304C66.6456 29.6336 67.3723 30.3147 67.6738 31.4207C68.0062 32.6438 67.6429 34.3723 66.5451 36.7307C66.522 36.7747 66.5065 36.8186 66.4756 36.8552L61.8063 44.1428C60.005 46.9553 58.1806 49.7752 55.7377 51.9285C53.2175 54.1697 50.0944 55.6638 45.8348 55.6492C41.8612 55.6419 38.8618 54.2063 36.4034 52.0676C33.4349 49.4895 19.7671 33.2737 25.8743 29.3699C26.1758 29.1868 26.5082 29.0183 26.8638 28.8938C26.5932 25.5393 26.5005 21.3206 26.6706 17.783C26.7633 16.948 26.9334 16.113 27.173 15.2708C28.2167 11.7185 30.8528 8.86207 34.0997 6.89918C35.8932 5.81519 37.8645 5.0022 39.9054 4.46021C41.2041 4.10865 38.7999 0.160894 40.1373 0.0437068C46.6388 -0.5935 57.1833 5.03882 61.729 9.70435C63.994 12.0335 65.4397 15.1316 65.7489 19.2258L65.5092 29.304Z" fill="#555555"/>
<path fill-rule="evenodd" clip-rule="evenodd" d="M73.6885 59.0771C82.7024 59.0771 90.0079 65.9985 90.0079 74.5386C90.0079 83.0786 82.7024 90 73.6885 90C64.6746 90 57.3691 83.0786 57.3691 74.5386C57.3691 65.9985 64.6746 59.0771 73.6885 59.0771ZM67.8519 73.3667C69.0733 74.0332 69.8696 74.5898 70.8127 75.5786C73.2633 71.8359 75.9304 69.7632 79.3937 66.8115L79.7339 66.687H83.5296C78.4428 72.0337 74.5002 76.4502 70.975 82.8955C69.1352 79.1748 67.4963 76.604 63.8397 74.2236L67.8519 73.3667Z" fill="#3AAF3C"/>
</g>
<defs>
<clipPath id="clip0_27_595">
<rect width="90" height="90" fill="white"/>
</clipPath>
</defs>
</svg>
