<svg width="58" height="49" viewBox="0 0 58 49" fill="none" xmlns="http://www.w3.org/2000/svg">
<path d="M15.8253 7.94348H42.1245L43.5961 30.3563C43.4087 34.1805 43.3188 34.3046 41.9354 36.0053C40.2342 37.6518 38.1731 38.5221 36.2968 39.1433C31.5899 40.7013 26.3903 40.6908 20.1152 37.2583C18.0702 36.2107 17.1585 31.6155 17.2968 29.7277L15.8252 7.94238L15.8253 7.94348Z" fill="#555555" stroke="#555555" stroke-width="0.241"/>
<path d="M0 10.1571L28.3946 0L58 9.3106L29.4327 27.0856L0 10.1571Z" fill="#555555"/>
<path d="M10.6081 31.6714L12.1686 31.6035C13.0512 37.4489 14.6628 45.5733 14.1717 46.8966C13.545 49.0768 10.5871 49.9974 9.88965 47.5104C9.92989 42.808 10.7257 37.9317 10.6079 31.6709L10.6081 31.6714Z" fill="#555555"/>
<path d="M31.3446 8.80313C30.3171 9.71862 28.1649 7.98342 27.8178 8.71402C27.7815 8.79056 27.8173 9.22377 27.8228 9.35221C28.6702 10.3614 30.3056 10.3799 31.3017 9.36477L31.3446 8.80313Z" fill="#555555"/>
<path d="M28.9063 8.91798L29.783 9.3413C25.3612 11.1894 13.6673 13.042 11.5047 16.4901C10.8536 17.5493 11.4734 22.3479 11.266 25.2678L10.2379 25.2771C10.3792 22.4217 9.93138 18.1768 10.3915 16.5348C10.8931 14.861 12.9696 12.6822 28.9071 8.91797L28.9063 8.91798Z" fill="#555555"/>
<path d="M11.792 27.2404L10.0078 27.6523L10.5038 32.4334L12.288 32.0215L11.792 27.2404Z" fill="#555555"/>
<path d="M31.1292 8.09765C34.3764 6.34472 37.7486 4.85684 41.7342 4.95542C41.9124 4.88638 42.2139 5.41611 41.5628 5.4442C38.0503 5.67233 34.7612 7.23437 31.4076 8.41181C30.9842 8.64473 30.8718 8.22489 31.1292 8.09765Z" fill="#555555"/>
<path d="M31.187 9.30095C35.0311 10.6548 38.9026 12.3801 42.8054 16.2028C43.0065 16.3032 43.1125 17.094 42.4589 16.5119C38.9054 13.4456 35.089 11.8693 31.3485 9.86319C30.8456 9.69082 30.8866 9.1824 31.187 9.30095Z" fill="#555555"/>
<path d="M28.9507 8.30854C25.1567 6.60145 21.2036 5.08948 16.4592 4.75902C16.2499 4.68663 15.8707 5.07125 16.6441 5.15991C20.8129 5.69824 24.6642 7.26005 28.6072 8.52652C29.1018 8.75252 29.2519 8.43466 28.9507 8.30854Z" fill="#555555"/>
<path d="M12.2601 26.6162C12.262 26.9194 12.2269 27.2202 12.157 27.5011C12.0871 27.7821 11.9836 28.0377 11.8527 28.2532C11.7218 28.4686 11.566 28.6396 11.3943 28.7564C11.2225 28.8731 11.0383 28.9332 10.8523 28.9332C10.6662 28.9332 10.482 28.8731 10.3103 28.7564C10.1385 28.6396 9.98273 28.4686 9.85181 28.2532C9.7209 28.0377 9.61749 27.7821 9.54756 27.5011C9.47763 27.2202 9.44257 26.9194 9.4444 26.6162" fill="#555555"/>
<path d="M31.3451 8.80348C30.5543 9.72978 28.6185 9.69886 27.8086 8.80348C27.8086 8.15046 28.6003 7.62109 29.5769 7.62109C30.5535 7.62109 31.3451 8.15046 31.3451 8.80348Z" fill="#555555"/>
<path d="M31.8196 8.66503C35.0668 6.9121 38.439 5.42422 42.4246 5.5228C42.6028 5.45377 42.9043 5.98353 42.2532 6.01158C38.7409 6.23972 35.4516 7.80191 32.098 8.97919C31.6746 9.21212 31.5623 8.79227 31.8196 8.66503Z" fill="#555555"/>
<path d="M30.6393 9.76429C34.5251 11.1496 38.4378 12.9086 42.3767 16.7763C42.5799 16.8785 42.6852 17.6742 42.0254 17.0849C38.4378 13.9799 34.5806 12.3711 30.8011 10.3307C30.2928 10.1542 30.3356 9.64337 30.6393 9.76445L30.6393 9.76429Z" fill="#555555"/>
<path d="M15.7757 4.59256C19.7044 5.13162 23.6847 5.96125 27.8324 8.44861C28.0398 8.50021 28.1971 9.11215 27.5062 8.74166C23.7566 6.80519 19.8411 6.08605 15.9736 5.01564C15.46 4.94887 15.468 4.54028 15.7759 4.59248L15.7757 4.59256Z" fill="#555555"/>
</svg>
