<svg width="125" height="84" viewBox="0 0 125 84" fill="none" xmlns="http://www.w3.org/2000/svg">
<g clip-path="url(#clip0_27_587)" filter="url(#filter0_d_27_587)">
<path fill-rule="evenodd" clip-rule="evenodd" d="M51.7934 22.0499C42.5069 15.932 33.3242 14.5823 23.8301 16.9176C25.9063 12.2204 29.0301 9.1393 32.7013 7.69196C37.9014 5.64083 46.414 7.09705 49.7643 11.4834C51.482 13.721 52.3408 17.0419 51.7934 22.0499ZM82.89 55.898C82.6352 54.9035 83.2958 53.909 84.3528 53.6693C85.4098 53.4295 86.4668 54.0511 86.7216 55.0456C87.2313 57.0612 88.109 58.6239 89.2792 59.7516C90.4778 60.8971 92.0161 61.634 93.847 61.9715C94.9134 62.1668 95.6023 63.1347 95.3947 64.138C95.1871 65.1414 94.1584 65.7896 93.092 65.5942C90.4872 65.1059 88.2505 64.0315 86.4857 62.3355C84.7964 60.7195 83.5695 58.5884 82.89 55.898ZM16.8463 55.898C16.5915 54.9035 17.2521 53.909 18.3091 53.6693C19.3661 53.4295 20.4231 54.0511 20.6779 55.0456C21.1876 57.0612 22.0653 58.6239 23.2355 59.7516C24.4341 60.8971 25.9724 61.634 27.8033 61.9715C28.8697 62.1668 29.5586 63.1347 29.351 64.138C29.1434 65.1414 28.1147 65.7896 27.0483 65.5942C24.4435 65.1059 22.2068 64.0315 20.442 62.3355C18.7527 60.7195 17.5258 58.5884 16.8463 55.898ZM61.9199 49.1408C64.5624 49.1408 66.7047 51.1031 66.7047 53.5183C66.7047 55.9335 64.5624 57.8958 61.9199 57.8958C59.2774 57.8958 57.135 55.9335 57.135 53.5183C57.135 51.1031 59.2774 49.1408 61.9199 49.1408ZM29.2283 37.4733C38.6658 37.4733 46.3197 44.4703 46.3197 53.1099C46.3197 61.7406 38.6658 68.7464 29.2283 68.7464C19.7908 68.7464 12.137 61.7495 12.137 53.1099C12.137 44.4703 19.7814 37.4733 29.2283 37.4733ZM95.272 37.4733C104.71 37.4733 112.363 44.4703 112.363 53.1099C112.363 61.7406 104.71 68.7464 95.272 68.7464C85.8345 68.7464 78.1807 61.7495 78.1807 53.1099C78.1807 44.4703 85.8251 37.4733 95.272 37.4733ZM72.3106 22.0499C81.5971 15.932 90.7798 14.5823 100.264 16.9176C98.1882 12.2204 95.0644 9.1393 91.3932 7.69196C86.1931 5.64083 77.6805 7.09705 74.3396 11.4834C72.622 13.721 71.7632 17.0419 72.3106 22.0499ZM105.587 22.2275C102.36 19.1019 97.1312 17.6901 89.8926 17.992C81.6915 18.3738 73.0278 21.597 70.2438 28.9047C67.9127 24.0921 56.1913 24.0921 53.8697 28.9047C51.0856 21.597 42.422 18.3649 34.2208 17.992C26.9822 17.6901 21.7633 19.1108 18.5262 22.2275C13.9773 27.9635 4.97393 42.9519 4.21893 50.2774C1.1423 80.0054 46.4612 87.4641 53.7281 56.7682C57.8523 63.6497 66.2517 63.6497 70.3759 56.7682C77.6428 87.473 122.962 80.0054 119.885 50.2774C119.13 42.9519 110.127 27.9635 105.587 22.2275Z" fill="#555555"/>
</g>
<defs>
<filter id="filter0_d_27_587" x="-4" y="0" width="133" height="84" filterUnits="userSpaceOnUse" color-interpolation-filters="sRGB">
<feFlood flood-opacity="0" result="BackgroundImageFix"/>
<feColorMatrix in="SourceAlpha" type="matrix" values="0 0 0 0 0 0 0 0 0 0 0 0 0 0 0 0 0 0 127 0" result="hardAlpha"/>
<feOffset dy="4"/>
<feGaussianBlur stdDeviation="2"/>
<feComposite in2="hardAlpha" operator="out"/>
<feColorMatrix type="matrix" values="0 0 0 0 0 0 0 0 0 0 0 0 0 0 0 0 0 0 0.25 0"/>
<feBlend mode="normal" in2="BackgroundImageFix" result="effect1_dropShadow_27_587"/>
<feBlend mode="normal" in="SourceGraphic" in2="effect1_dropShadow_27_587" result="shape"/>
</filter>
<clipPath id="clip0_27_587">
<rect width="125" height="76" fill="white"/>
</clipPath>
</defs>
</svg>
